<svg width="194" height="91" viewBox="0 0 194 91" fill="none" xmlns="http://www.w3.org/2000/svg">
<path d="M31.2077 72.2221C31.2662 72.2426 31.3297 72.2457 31.3901 72.2318C34.4968 71.4979 37.1971 69.5774 38.9036 66.887C39.2319 66.3691 38.992 65.6785 38.4142 65.4753C37.9857 65.3246 37.5086 65.4956 37.2794 65.8864C35.8405 68.357 33.7131 70.3531 31.1677 71.6335C30.9151 71.7588 30.9405 72.1281 31.2077 72.2221Z" fill="url(#paint0_linear_32_11)"/>
<path d="M62.606 82.144C62.494 82.144 62.408 82.1 62.348 82.012C62.292 81.928 62.264 81.806 62.264 81.646C62.264 81.334 62.408 80.874 62.696 80.266C62.988 79.658 63.414 78.924 63.974 78.064L63.788 77.812C63.904 77.74 64.012 77.688 64.112 77.656C64.216 77.624 64.326 77.608 64.442 77.608C64.606 77.608 64.708 77.648 64.748 77.728C64.844 77.648 64.948 77.608 65.06 77.608C65.18 77.608 65.27 77.65 65.33 77.734C65.39 77.814 65.42 77.94 65.42 78.112C65.42 78.324 65.418 78.492 65.414 78.616C65.41 79.188 65.412 79.674 65.42 80.074C65.432 80.474 65.47 80.856 65.534 81.22C65.598 81.584 65.702 81.84 65.846 81.988C65.714 82.092 65.56 82.144 65.384 82.144C65.196 82.144 65.05 82.076 64.946 81.94C64.846 81.8 64.774 81.568 64.73 81.244C64.69 80.916 64.67 80.446 64.67 79.834C64.67 79.474 64.67 79.16 64.67 78.892C64.67 78.62 64.672 78.388 64.676 78.196H64.604C64.064 79 63.664 79.674 63.404 80.218C63.144 80.758 63.014 81.176 63.014 81.472C63.014 81.58 63.02 81.676 63.032 81.76C63.048 81.844 63.07 81.92 63.098 81.988C63.03 82.04 62.956 82.078 62.876 82.102C62.796 82.13 62.706 82.144 62.606 82.144ZM62.954 80.452H65.03L64.952 80.878H62.864L62.954 80.452ZM69.1915 82.156C69.0435 82.156 68.9355 82.12 68.8675 82.048C68.7995 81.976 68.7655 81.858 68.7655 81.694C68.7655 81.466 68.7955 81.12 68.8555 80.656C68.9155 80.188 69.0355 79.39 69.2155 78.262L69.0295 77.896C69.1575 77.812 69.2815 77.75 69.4015 77.71C69.5255 77.666 69.6355 77.644 69.7315 77.644C69.9675 77.644 70.1455 77.718 70.2655 77.866C70.3855 78.014 70.4935 78.278 70.5895 78.658C70.6895 79.038 70.8415 79.738 71.0455 80.758C71.0535 80.802 71.0615 80.846 71.0695 80.89C71.0815 80.934 71.0915 80.978 71.0995 81.022H71.1655C71.3015 80.47 71.5075 79.932 71.7835 79.408C72.0635 78.884 72.3735 78.46 72.7135 78.136C73.0575 77.808 73.3895 77.644 73.7095 77.644C73.7815 77.644 73.8375 77.668 73.8775 77.716C73.9215 77.764 73.9435 77.84 73.9435 77.944C73.9435 77.984 73.9255 78.116 73.8895 78.34C73.8575 78.564 73.8195 78.814 73.7755 79.09C73.6675 79.766 73.5855 80.302 73.5295 80.698C73.4735 81.09 73.4455 81.36 73.4455 81.508C73.4455 81.716 73.4935 81.884 73.5895 82.012C73.4295 82.116 73.2755 82.168 73.1275 82.168C72.9835 82.168 72.8775 82.13 72.8095 82.054C72.7455 81.982 72.7135 81.864 72.7135 81.7C72.7135 81.464 72.7415 81.12 72.7975 80.668C72.8535 80.212 72.9615 79.502 73.1215 78.538H73.0855C72.8215 78.766 72.5835 79.068 72.3715 79.444C72.1635 79.82 71.9935 80.2 71.8615 80.584C71.7295 80.968 71.6435 81.29 71.6035 81.55C71.5315 81.614 71.4515 81.664 71.3635 81.7C71.2755 81.736 71.1895 81.754 71.1055 81.754C70.9295 81.754 70.7955 81.692 70.7035 81.568C70.6155 81.444 70.5255 81.196 70.4335 80.824C70.3415 80.448 70.1875 79.726 69.9715 78.658C69.9675 78.638 69.9635 78.618 69.9595 78.598C69.9555 78.578 69.9515 78.558 69.9475 78.538H69.9115C69.9035 78.602 69.8935 78.668 69.8815 78.736C69.8695 78.804 69.8595 78.872 69.8515 78.94C69.7355 79.672 69.6475 80.242 69.5875 80.65C69.5315 81.054 69.5035 81.336 69.5035 81.496C69.5035 81.72 69.5515 81.888 69.6475 82C69.4955 82.104 69.3435 82.156 69.1915 82.156ZM75.829 82.15C75.501 82.15 75.259 82.072 75.103 81.916C74.947 81.756 74.869 81.51 74.869 81.178C74.869 81.014 74.881 80.846 74.905 80.674C74.933 80.502 74.975 80.274 75.031 79.99C75.075 79.77 75.109 79.584 75.133 79.432C75.157 79.28 75.169 79.144 75.169 79.024C75.169 78.936 75.163 78.854 75.151 78.778C75.139 78.698 75.123 78.626 75.103 78.562C75.183 78.514 75.267 78.476 75.355 78.448C75.443 78.416 75.515 78.4 75.571 78.4C75.687 78.4 75.771 78.432 75.823 78.496C75.879 78.556 75.907 78.654 75.907 78.79C75.907 78.89 75.891 79.03 75.859 79.21C75.827 79.39 75.779 79.63 75.715 79.93C75.671 80.15 75.629 80.364 75.589 80.572C75.553 80.776 75.535 80.924 75.535 81.016C75.535 81.244 75.583 81.416 75.679 81.532C75.775 81.648 75.917 81.706 76.105 81.706C76.337 81.706 76.553 81.62 76.753 81.448C76.953 81.272 77.111 81.032 77.227 80.728L77.185 81.64L76.975 81.532C76.847 81.712 76.675 81.86 76.459 81.976C76.243 82.092 76.033 82.15 75.829 82.15ZM77.437 82.15C77.301 82.15 77.199 82.104 77.131 82.012C77.067 81.92 77.035 81.776 77.035 81.58C77.035 81.42 77.073 81.142 77.149 80.746C77.225 80.346 77.351 79.768 77.527 79.012L77.281 78.652C77.361 78.58 77.467 78.52 77.599 78.472C77.731 78.424 77.851 78.4 77.959 78.4C78.079 78.4 78.163 78.426 78.211 78.478C78.263 78.526 78.289 78.61 78.289 78.73C78.289 78.75 78.277 78.81 78.253 78.91C78.233 79.01 78.207 79.122 78.175 79.246C78.047 79.794 77.943 80.264 77.863 80.656C77.787 81.048 77.749 81.386 77.749 81.67C77.749 81.822 77.783 81.928 77.851 81.988C77.731 82.096 77.593 82.15 77.437 82.15ZM79.7181 82.15C79.5981 82.15 79.5061 82.11 79.4421 82.03C79.3781 81.954 79.3461 81.836 79.3461 81.676C79.3461 81.52 79.3901 81.148 79.4781 80.56C79.5661 79.968 79.6661 79.342 79.7781 78.682C79.8021 78.542 79.8261 78.408 79.8501 78.28C79.8741 78.148 79.8961 78.024 79.9161 77.908L79.6521 77.608C79.7441 77.528 79.8541 77.466 79.9821 77.422C80.1141 77.374 80.2341 77.35 80.3421 77.35C80.4541 77.35 80.5341 77.376 80.5821 77.428C80.6301 77.476 80.6541 77.56 80.6541 77.68C80.6541 77.732 80.6381 77.842 80.6061 78.01C80.5741 78.178 80.5361 78.366 80.4921 78.574C80.3601 79.218 80.2521 79.79 80.1681 80.29C80.0881 80.786 80.0481 81.228 80.0481 81.616C80.0481 81.692 80.0581 81.764 80.0781 81.832C80.1021 81.896 80.1321 81.946 80.1681 81.982C80.1081 82.034 80.0401 82.074 79.9641 82.102C79.8881 82.134 79.8061 82.15 79.7181 82.15ZM82.2561 82.15C82.1321 82.15 82.0341 82.114 81.9621 82.042C81.8901 81.97 81.8541 81.836 81.8541 81.64C81.8541 81.444 81.8801 81.22 81.9321 80.968C81.9841 80.716 82.0601 80.392 82.1601 79.996C82.2521 79.636 82.3201 79.35 82.3641 79.138C82.4081 78.922 82.4301 78.736 82.4301 78.58C82.4301 78.436 82.4101 78.274 82.3701 78.094L82.3581 78.046C82.4261 77.974 82.5161 77.918 82.6281 77.878C82.7401 77.834 82.8501 77.812 82.9581 77.812C83.0741 77.812 83.1581 77.838 83.2101 77.89C83.2621 77.942 83.2881 78.028 83.2881 78.148C83.2881 78.244 83.2681 78.368 83.2281 78.52C83.1921 78.672 83.1321 78.886 83.0481 79.162C82.8961 79.666 82.7761 80.106 82.6881 80.482C82.6041 80.854 82.5641 81.23 82.5681 81.61L82.7601 81.934C82.6881 82.006 82.6061 82.06 82.5141 82.096C82.4261 82.132 82.3401 82.15 82.2561 82.15ZM81.9501 79.372C81.8501 79.372 81.7781 79.354 81.7341 79.318C81.6901 79.278 81.6681 79.218 81.6681 79.138C81.6681 79.034 81.7001 78.936 81.7641 78.844C81.8761 78.88 82.0581 78.898 82.3101 78.898C82.4621 78.898 82.6621 78.876 82.9101 78.832C83.0141 78.816 83.1221 78.802 83.2341 78.79C83.3461 78.774 83.4481 78.766 83.5401 78.766C83.6441 78.766 83.7161 78.786 83.7561 78.826C83.7961 78.866 83.8161 78.926 83.8161 79.006C83.8161 79.11 83.7841 79.204 83.7201 79.288C83.6601 79.272 83.5781 79.26 83.4741 79.252C83.3741 79.24 83.2801 79.234 83.1921 79.234C83.1081 79.234 83.0121 79.242 82.9041 79.258C82.7961 79.27 82.6921 79.284 82.5921 79.3C82.3041 79.348 82.0901 79.372 81.9501 79.372ZM84.6998 82.15C84.5638 82.15 84.4618 82.116 84.3938 82.048C84.3258 81.98 84.2918 81.872 84.2918 81.724C84.2918 81.56 84.3298 81.268 84.4058 80.848C84.4858 80.428 84.6198 79.796 84.8078 78.952L84.5438 78.652C84.6398 78.576 84.7498 78.516 84.8738 78.472C85.0018 78.424 85.1178 78.4 85.2218 78.4C85.3418 78.4 85.4258 78.426 85.4738 78.478C85.5258 78.526 85.5518 78.61 85.5518 78.73C85.5518 78.75 85.5398 78.81 85.5158 78.91C85.4958 79.01 85.4698 79.122 85.4378 79.246C85.3138 79.754 85.2098 80.214 85.1258 80.626C85.0458 81.038 85.0058 81.386 85.0058 81.67C85.0058 81.822 85.0418 81.928 85.1138 81.988C84.9818 82.096 84.8438 82.15 84.6998 82.15ZM85.2338 77.89C85.1058 77.89 85.0038 77.86 84.9278 77.8C84.8518 77.736 84.8138 77.652 84.8138 77.548C84.8138 77.468 84.8358 77.394 84.8798 77.326C84.9278 77.258 84.9918 77.204 85.0718 77.164C85.1518 77.12 85.2438 77.098 85.3478 77.098C85.4798 77.098 85.5818 77.13 85.6538 77.194C85.7298 77.254 85.7678 77.334 85.7678 77.434C85.7678 77.562 85.7178 77.67 85.6178 77.758C85.5178 77.846 85.3898 77.89 85.2338 77.89ZM86.69 80.614C86.598 80.614 86.526 80.592 86.474 80.548C86.426 80.5 86.402 80.42 86.402 80.308C86.402 80.188 86.438 80.062 86.51 79.93C86.602 79.946 86.694 79.954 86.786 79.954C86.914 79.954 87.034 79.946 87.146 79.93C87.262 79.91 87.414 79.88 87.602 79.84C87.758 79.804 87.894 79.776 88.01 79.756C88.13 79.736 88.25 79.726 88.37 79.726C88.462 79.726 88.534 79.75 88.586 79.798C88.638 79.842 88.664 79.918 88.664 80.026C88.664 80.15 88.626 80.276 88.55 80.404C88.466 80.388 88.376 80.38 88.28 80.38C88.148 80.38 88.02 80.39 87.896 80.41C87.772 80.43 87.626 80.46 87.458 80.5C87.302 80.536 87.164 80.564 87.044 80.584C86.928 80.604 86.81 80.614 86.69 80.614ZM90.6313 82.15C90.2353 82.15 89.9233 82.096 89.6953 81.988C89.4673 81.88 89.3533 81.73 89.3533 81.538C89.3533 81.458 89.3773 81.382 89.4253 81.31C89.4733 81.238 89.5413 81.178 89.6293 81.13C89.7293 81.33 89.8633 81.484 90.0313 81.592C90.1993 81.696 90.3853 81.748 90.5893 81.748C90.8773 81.748 91.1093 81.694 91.2853 81.586C91.4613 81.478 91.5493 81.322 91.5493 81.118C91.5493 80.994 91.4833 80.894 91.3513 80.818C91.2233 80.742 91.0253 80.658 90.7573 80.566C90.5093 80.482 90.3053 80.402 90.1453 80.326C89.9853 80.25 89.8493 80.148 89.7373 80.02C89.6253 79.888 89.5693 79.726 89.5693 79.534C89.5693 79.314 89.6453 79.118 89.7973 78.946C89.9493 78.774 90.1593 78.64 90.4273 78.544C90.6993 78.448 91.0113 78.4 91.3633 78.4C91.6833 78.4 91.9453 78.448 92.1493 78.544C92.3573 78.64 92.4613 78.762 92.4613 78.91C92.4613 79.054 92.4133 79.166 92.3173 79.246C92.2213 79.322 92.0953 79.36 91.9393 79.36C91.7873 79.36 91.6573 79.312 91.5493 79.216C91.4413 79.12 91.3593 78.98 91.3033 78.796C90.9753 78.832 90.7173 78.91 90.5293 79.03C90.3453 79.146 90.2533 79.288 90.2533 79.456C90.2533 79.54 90.2853 79.612 90.3493 79.672C90.4173 79.732 90.5013 79.784 90.6013 79.828C90.7013 79.868 90.8433 79.92 91.0273 79.984C91.2833 80.072 91.4893 80.154 91.6453 80.23C91.8053 80.306 91.9413 80.41 92.0533 80.542C92.1693 80.67 92.2273 80.832 92.2273 81.028C92.2273 81.24 92.1633 81.432 92.0353 81.604C91.9073 81.772 91.7213 81.904 91.4773 82C91.2373 82.1 90.9553 82.15 90.6313 82.15ZM94.6043 82C94.4043 82 94.2143 81.984 94.0343 81.952C93.9863 81.868 93.9623 81.774 93.9623 81.67C94.4023 81.67 94.7883 81.594 95.1203 81.442C95.4563 81.286 95.7143 81.07 95.8943 80.794C96.0783 80.514 96.1703 80.192 96.1703 79.828C96.1703 79.556 96.1123 79.344 95.9963 79.192C95.8843 79.04 95.7263 78.964 95.5223 78.964C95.3183 78.964 95.1283 79.06 94.9523 79.252C94.7803 79.44 94.6243 79.718 94.4843 80.086C94.3443 80.45 94.2183 80.9 94.1063 81.436L94.2503 79.15L94.5623 79.378C94.7023 79.066 94.8823 78.826 95.1023 78.658C95.3223 78.486 95.5583 78.4 95.8103 78.4C96.0263 78.4 96.2163 78.458 96.3803 78.574C96.5483 78.69 96.6763 78.856 96.7643 79.072C96.8563 79.284 96.9023 79.53 96.9023 79.81C96.9023 80.214 96.8003 80.584 96.5963 80.92C96.3963 81.252 96.1203 81.516 95.7683 81.712C95.4163 81.904 95.0283 82 94.6043 82ZM93.6923 83.2C93.5683 83.2 93.4743 83.158 93.4103 83.074C93.3463 82.994 93.3143 82.87 93.3143 82.702C93.3143 82.546 93.3683 82.104 93.4763 81.376C93.5883 80.644 93.7243 79.838 93.8843 78.958L93.6203 78.658C93.7163 78.582 93.8283 78.52 93.9563 78.472C94.0843 78.424 94.2023 78.4 94.3103 78.4C94.4223 78.4 94.5023 78.426 94.5503 78.478C94.5983 78.526 94.6223 78.61 94.6223 78.73C94.6223 78.81 94.6083 78.92 94.5803 79.06C94.5563 79.196 94.5143 79.392 94.4543 79.648C94.3183 80.24 94.2103 80.772 94.1303 81.244C94.0543 81.712 94.0163 82.188 94.0163 82.672C94.0163 82.748 94.0283 82.818 94.0523 82.882C94.0763 82.95 94.1063 83 94.1423 83.032C94.0823 83.088 94.0143 83.13 93.9383 83.158C93.8623 83.186 93.7803 83.2 93.6923 83.2ZM99.1736 82.15C98.7496 82.15 98.4176 82.02 98.1776 81.76C97.9376 81.5 97.8176 81.142 97.8176 80.686C97.8176 80.254 97.9116 79.864 98.0996 79.516C98.2876 79.168 98.5476 78.896 98.8796 78.7C99.2116 78.5 99.5816 78.4 99.9896 78.4C100.306 78.4 100.552 78.476 100.728 78.628C100.908 78.78 100.998 78.99 100.998 79.258C100.998 79.542 100.896 79.786 100.692 79.99C100.488 80.19 100.19 80.344 99.7976 80.452C99.4096 80.556 98.9396 80.608 98.3876 80.608L98.4596 80.272C99.0556 80.276 99.5176 80.188 99.8456 80.008C100.178 79.824 100.344 79.568 100.344 79.24C100.344 79.1 100.302 78.988 100.218 78.904C100.134 78.82 100.024 78.778 99.8876 78.778C99.6516 78.778 99.4316 78.866 99.2276 79.042C99.0236 79.214 98.8616 79.45 98.7416 79.75C98.6216 80.046 98.5616 80.37 98.5616 80.722C98.5616 81.042 98.6216 81.294 98.7416 81.478C98.8616 81.658 99.0256 81.748 99.2336 81.748C99.4936 81.748 99.7056 81.666 99.8696 81.502C100.034 81.338 100.124 81.12 100.14 80.848C100.296 80.848 100.416 80.878 100.5 80.938C100.584 80.994 100.626 81.084 100.626 81.208C100.626 81.368 100.562 81.522 100.434 81.67C100.306 81.814 100.13 81.93 99.9056 82.018C99.6856 82.106 99.4416 82.15 99.1736 82.15ZM103.13 82.15C102.69 82.15 102.344 82.022 102.092 81.766C101.844 81.51 101.72 81.154 101.72 80.698C101.72 80.266 101.816 79.876 102.008 79.528C102.2 79.176 102.462 78.9 102.794 78.7C103.126 78.5 103.49 78.4 103.886 78.4C104.138 78.4 104.336 78.442 104.48 78.526C104.628 78.606 104.702 78.718 104.702 78.862C104.702 78.982 104.654 79.084 104.558 79.168C104.466 79.248 104.35 79.288 104.21 79.288C104.062 79.288 103.928 79.254 103.808 79.186C103.688 79.118 103.59 79.008 103.514 78.856C103.31 78.944 103.128 79.08 102.968 79.264C102.808 79.448 102.682 79.668 102.59 79.924C102.502 80.176 102.458 80.446 102.458 80.734C102.458 81.05 102.516 81.298 102.632 81.478C102.752 81.658 102.916 81.748 103.124 81.748C103.292 81.748 103.442 81.706 103.574 81.622C103.706 81.538 103.81 81.424 103.886 81.28C103.962 81.132 104.006 80.968 104.018 80.788C104.174 80.788 104.294 80.818 104.378 80.878C104.462 80.938 104.504 81.03 104.504 81.154C104.504 81.334 104.442 81.5 104.318 81.652C104.194 81.804 104.026 81.924 103.814 82.012C103.606 82.104 103.378 82.15 103.13 82.15ZM105.999 82.15C105.863 82.15 105.761 82.116 105.693 82.048C105.625 81.98 105.591 81.872 105.591 81.724C105.591 81.56 105.629 81.268 105.705 80.848C105.785 80.428 105.919 79.796 106.107 78.952L105.843 78.652C105.939 78.576 106.049 78.516 106.173 78.472C106.301 78.424 106.417 78.4 106.521 78.4C106.641 78.4 106.725 78.426 106.773 78.478C106.825 78.526 106.851 78.61 106.851 78.73C106.851 78.75 106.839 78.81 106.815 78.91C106.795 79.01 106.769 79.122 106.737 79.246C106.613 79.754 106.509 80.214 106.425 80.626C106.345 81.038 106.305 81.386 106.305 81.67C106.305 81.822 106.341 81.928 106.413 81.988C106.281 82.096 106.143 82.15 105.999 82.15ZM106.533 77.89C106.405 77.89 106.303 77.86 106.227 77.8C106.151 77.736 106.113 77.652 106.113 77.548C106.113 77.468 106.135 77.394 106.179 77.326C106.227 77.258 106.291 77.204 106.371 77.164C106.451 77.12 106.543 77.098 106.647 77.098C106.779 77.098 106.881 77.13 106.953 77.194C107.029 77.254 107.067 77.334 107.067 77.434C107.067 77.562 107.017 77.67 106.917 77.758C106.817 77.846 106.689 77.89 106.533 77.89ZM108.847 82.15C108.631 82.15 108.439 82.092 108.271 81.976C108.107 81.86 107.979 81.696 107.887 81.484C107.799 81.268 107.755 81.02 107.755 80.74C107.755 80.308 107.857 79.914 108.061 79.558C108.265 79.198 108.543 78.916 108.895 78.712C109.247 78.504 109.635 78.4 110.059 78.4C110.243 78.4 110.431 78.416 110.623 78.448C110.671 78.532 110.695 78.626 110.695 78.73C110.243 78.73 109.851 78.816 109.519 78.988C109.187 79.16 108.933 79.398 108.757 79.702C108.581 80.002 108.493 80.342 108.493 80.722C108.493 80.994 108.549 81.206 108.661 81.358C108.773 81.51 108.931 81.586 109.135 81.586C109.507 81.586 109.813 81.35 110.053 80.878C110.293 80.402 110.473 79.686 110.593 78.73C110.637 78.674 110.693 78.63 110.761 78.598C110.833 78.566 110.905 78.55 110.977 78.55C111.077 78.55 111.155 78.574 111.211 78.622C111.271 78.67 111.301 78.736 111.301 78.82C111.301 78.912 111.287 79.022 111.259 79.15C111.235 79.278 111.193 79.466 111.133 79.714C111.037 80.118 110.963 80.468 110.911 80.764C110.859 81.06 110.833 81.362 110.833 81.67C110.833 81.81 110.869 81.914 110.941 81.982C110.817 82.094 110.683 82.15 110.539 82.15C110.403 82.15 110.299 82.108 110.227 82.024C110.155 81.94 110.119 81.818 110.119 81.658C110.119 81.57 110.133 81.45 110.161 81.298L110.101 81.268C109.957 81.548 109.775 81.766 109.555 81.922C109.339 82.074 109.103 82.15 108.847 82.15ZM112.759 82.15C112.639 82.15 112.547 82.11 112.483 82.03C112.419 81.954 112.387 81.836 112.387 81.676C112.387 81.52 112.431 81.148 112.519 80.56C112.607 79.968 112.707 79.342 112.819 78.682C112.843 78.542 112.867 78.408 112.891 78.28C112.915 78.148 112.937 78.024 112.957 77.908L112.693 77.608C112.785 77.528 112.895 77.466 113.023 77.422C113.155 77.374 113.275 77.35 113.383 77.35C113.495 77.35 113.575 77.376 113.623 77.428C113.671 77.476 113.695 77.56 113.695 77.68C113.695 77.732 113.679 77.842 113.647 78.01C113.615 78.178 113.577 78.366 113.533 78.574C113.401 79.218 113.293 79.79 113.209 80.29C113.129 80.786 113.089 81.228 113.089 81.616C113.089 81.692 113.099 81.764 113.119 81.832C113.143 81.896 113.173 81.946 113.209 81.982C113.149 82.034 113.081 82.074 113.005 82.102C112.929 82.134 112.847 82.15 112.759 82.15ZM115.063 82.15C114.927 82.15 114.825 82.116 114.757 82.048C114.689 81.98 114.655 81.872 114.655 81.724C114.655 81.56 114.693 81.268 114.769 80.848C114.849 80.428 114.983 79.796 115.171 78.952L114.907 78.652C115.003 78.576 115.113 78.516 115.237 78.472C115.365 78.424 115.481 78.4 115.585 78.4C115.705 78.4 115.789 78.426 115.837 78.478C115.889 78.526 115.915 78.61 115.915 78.73C115.915 78.75 115.903 78.81 115.879 78.91C115.859 79.01 115.833 79.122 115.801 79.246C115.677 79.754 115.573 80.214 115.489 80.626C115.409 81.038 115.369 81.386 115.369 81.67C115.369 81.822 115.405 81.928 115.477 81.988C115.345 82.096 115.207 82.15 115.063 82.15ZM115.597 77.89C115.469 77.89 115.367 77.86 115.291 77.8C115.215 77.736 115.177 77.652 115.177 77.548C115.177 77.468 115.199 77.394 115.243 77.326C115.291 77.258 115.355 77.204 115.435 77.164C115.515 77.12 115.607 77.098 115.711 77.098C115.843 77.098 115.945 77.13 116.017 77.194C116.093 77.254 116.131 77.334 116.131 77.434C116.131 77.562 116.081 77.67 115.981 77.758C115.881 77.846 115.753 77.89 115.597 77.89ZM117.623 82.15C117.499 82.15 117.401 82.114 117.329 82.042C117.257 81.97 117.221 81.836 117.221 81.64C117.221 81.444 117.247 81.22 117.299 80.968C117.351 80.716 117.427 80.392 117.527 79.996C117.619 79.636 117.687 79.35 117.731 79.138C117.775 78.922 117.797 78.736 117.797 78.58C117.797 78.436 117.777 78.274 117.737 78.094L117.725 78.046C117.793 77.974 117.883 77.918 117.995 77.878C118.107 77.834 118.217 77.812 118.325 77.812C118.441 77.812 118.525 77.838 118.577 77.89C118.629 77.942 118.655 78.028 118.655 78.148C118.655 78.244 118.635 78.368 118.595 78.52C118.559 78.672 118.499 78.886 118.415 79.162C118.263 79.666 118.143 80.106 118.055 80.482C117.971 80.854 117.931 81.23 117.935 81.61L118.127 81.934C118.055 82.006 117.973 82.06 117.881 82.096C117.793 82.132 117.707 82.15 117.623 82.15ZM117.317 79.372C117.217 79.372 117.145 79.354 117.101 79.318C117.057 79.278 117.035 79.218 117.035 79.138C117.035 79.034 117.067 78.936 117.131 78.844C117.243 78.88 117.425 78.898 117.677 78.898C117.829 78.898 118.029 78.876 118.277 78.832C118.381 78.816 118.489 78.802 118.601 78.79C118.713 78.774 118.815 78.766 118.907 78.766C119.011 78.766 119.083 78.786 119.123 78.826C119.163 78.866 119.183 78.926 119.183 79.006C119.183 79.11 119.151 79.204 119.087 79.288C119.027 79.272 118.945 79.26 118.841 79.252C118.741 79.24 118.647 79.234 118.559 79.234C118.475 79.234 118.379 79.242 118.271 79.258C118.163 79.27 118.059 79.284 117.959 79.3C117.671 79.348 117.457 79.372 117.317 79.372ZM119.443 83.2C119.191 83.2 119.003 83.156 118.879 83.068C118.755 82.98 118.693 82.86 118.693 82.708C118.693 82.652 118.705 82.592 118.729 82.528C118.753 82.468 118.781 82.414 118.813 82.366C118.897 82.462 118.995 82.54 119.107 82.6C119.219 82.66 119.377 82.69 119.581 82.69C119.901 82.69 120.261 82.56 120.661 82.3C121.065 82.044 121.415 81.63 121.711 81.058C122.011 80.486 122.161 79.76 122.161 78.88C122.161 78.716 122.157 78.606 122.149 78.55C122.241 78.494 122.317 78.456 122.377 78.436C122.437 78.412 122.501 78.4 122.569 78.4C122.773 78.4 122.875 78.52 122.875 78.76C122.875 79.408 122.731 80.078 122.443 80.77C122.155 81.462 121.749 82.04 121.225 82.504C120.705 82.968 120.111 83.2 119.443 83.2ZM121.009 82.15C120.673 82.15 120.425 82.06 120.265 81.88C120.105 81.7 120.003 81.482 119.959 81.226C119.919 80.966 119.893 80.618 119.881 80.182C119.877 79.894 119.867 79.658 119.851 79.474C119.835 79.286 119.799 79.11 119.743 78.946C119.691 78.782 119.609 78.65 119.497 78.55C119.625 78.45 119.763 78.4 119.911 78.4C120.123 78.4 120.277 78.476 120.373 78.628C120.473 78.776 120.533 78.96 120.553 79.18C120.577 79.396 120.589 79.692 120.589 80.068C120.593 80.472 120.607 80.792 120.631 81.028C120.659 81.264 120.731 81.466 120.847 81.634C120.967 81.798 121.151 81.88 121.399 81.88L121.009 82.15ZM125.588 82.144C125.476 82.144 125.39 82.1 125.33 82.012C125.274 81.928 125.246 81.806 125.246 81.646C125.246 81.334 125.39 80.874 125.678 80.266C125.97 79.658 126.396 78.924 126.956 78.064L126.77 77.812C126.886 77.74 126.994 77.688 127.094 77.656C127.198 77.624 127.308 77.608 127.424 77.608C127.588 77.608 127.69 77.648 127.73 77.728C127.826 77.648 127.93 77.608 128.042 77.608C128.162 77.608 128.252 77.65 128.312 77.734C128.372 77.814 128.402 77.94 128.402 78.112C128.402 78.324 128.4 78.492 128.396 78.616C128.392 79.188 128.394 79.674 128.402 80.074C128.414 80.474 128.452 80.856 128.516 81.22C128.58 81.584 128.684 81.84 128.828 81.988C128.696 82.092 128.542 82.144 128.366 82.144C128.178 82.144 128.032 82.076 127.928 81.94C127.828 81.8 127.756 81.568 127.712 81.244C127.672 80.916 127.652 80.446 127.652 79.834C127.652 79.474 127.652 79.16 127.652 78.892C127.652 78.62 127.654 78.388 127.658 78.196H127.586C127.046 79 126.646 79.674 126.386 80.218C126.126 80.758 125.996 81.176 125.996 81.472C125.996 81.58 126.002 81.676 126.014 81.76C126.03 81.844 126.052 81.92 126.08 81.988C126.012 82.04 125.938 82.078 125.858 82.102C125.778 82.13 125.688 82.144 125.588 82.144ZM125.936 80.452H128.012L127.934 80.878H125.846L125.936 80.452ZM129.545 83.2C129.293 83.2 129.105 83.156 128.981 83.068C128.857 82.98 128.795 82.86 128.795 82.708C128.795 82.652 128.807 82.592 128.831 82.528C128.855 82.468 128.883 82.414 128.915 82.366C128.999 82.462 129.097 82.54 129.209 82.6C129.321 82.66 129.479 82.69 129.683 82.69C130.003 82.69 130.363 82.56 130.763 82.3C131.167 82.044 131.517 81.63 131.813 81.058C132.113 80.486 132.263 79.76 132.263 78.88C132.263 78.716 132.259 78.606 132.251 78.55C132.343 78.494 132.419 78.456 132.479 78.436C132.539 78.412 132.603 78.4 132.671 78.4C132.875 78.4 132.977 78.52 132.977 78.76C132.977 79.408 132.833 80.078 132.545 80.77C132.257 81.462 131.851 82.04 131.327 82.504C130.807 82.968 130.213 83.2 129.545 83.2ZM131.111 82.15C130.775 82.15 130.527 82.06 130.367 81.88C130.207 81.7 130.105 81.482 130.061 81.226C130.021 80.966 129.995 80.618 129.983 80.182C129.979 79.894 129.969 79.658 129.953 79.474C129.937 79.286 129.901 79.11 129.845 78.946C129.793 78.782 129.711 78.65 129.599 78.55C129.727 78.45 129.865 78.4 130.013 78.4C130.225 78.4 130.379 78.476 130.475 78.628C130.575 78.776 130.635 78.96 130.655 79.18C130.679 79.396 130.691 79.692 130.691 80.068C130.695 80.472 130.709 80.792 130.733 81.028C130.761 81.264 130.833 81.466 130.949 81.634C131.069 81.798 131.253 81.88 131.501 81.88L131.111 82.15ZM134.675 82.15C134.347 82.15 134.105 82.072 133.949 81.916C133.793 81.756 133.715 81.51 133.715 81.178C133.715 81.014 133.727 80.846 133.751 80.674C133.779 80.502 133.821 80.274 133.877 79.99C133.921 79.77 133.955 79.584 133.979 79.432C134.003 79.28 134.015 79.144 134.015 79.024C134.015 78.936 134.009 78.854 133.997 78.778C133.985 78.698 133.969 78.626 133.949 78.562C134.029 78.514 134.113 78.476 134.201 78.448C134.289 78.416 134.361 78.4 134.417 78.4C134.533 78.4 134.617 78.432 134.669 78.496C134.725 78.556 134.753 78.654 134.753 78.79C134.753 78.89 134.737 79.03 134.705 79.21C134.673 79.39 134.625 79.63 134.561 79.93C134.517 80.15 134.475 80.364 134.435 80.572C134.399 80.776 134.381 80.924 134.381 81.016C134.381 81.244 134.429 81.416 134.525 81.532C134.621 81.648 134.763 81.706 134.951 81.706C135.183 81.706 135.399 81.62 135.599 81.448C135.799 81.272 135.957 81.032 136.073 80.728L136.031 81.64L135.821 81.532C135.693 81.712 135.521 81.86 135.305 81.976C135.089 82.092 134.879 82.15 134.675 82.15ZM136.283 82.15C136.147 82.15 136.045 82.104 135.977 82.012C135.913 81.92 135.881 81.776 135.881 81.58C135.881 81.42 135.919 81.142 135.995 80.746C136.071 80.346 136.197 79.768 136.373 79.012L136.127 78.652C136.207 78.58 136.313 78.52 136.445 78.472C136.577 78.424 136.697 78.4 136.805 78.4C136.925 78.4 137.009 78.426 137.057 78.478C137.109 78.526 137.135 78.61 137.135 78.73C137.135 78.75 137.123 78.81 137.099 78.91C137.079 79.01 137.053 79.122 137.021 79.246C136.893 79.794 136.789 80.264 136.709 80.656C136.633 81.048 136.595 81.386 136.595 81.67C136.595 81.822 136.629 81.928 136.697 81.988C136.577 82.096 136.439 82.15 136.283 82.15ZM138.618 82.15C138.482 82.15 138.38 82.108 138.312 82.024C138.244 81.944 138.21 81.82 138.21 81.652C138.21 81.488 138.264 81.128 138.372 80.572C138.484 80.012 138.604 79.488 138.732 79L138.468 78.7C138.576 78.612 138.68 78.544 138.78 78.496C138.884 78.444 138.978 78.418 139.062 78.418C139.174 78.418 139.256 78.45 139.308 78.514C139.36 78.574 139.386 78.652 139.386 78.748C139.386 78.872 139.364 79.008 139.32 79.156C139.28 79.3 139.22 79.47 139.14 79.666L139.2 79.696C139.324 79.4 139.45 79.156 139.578 78.964C139.71 78.772 139.842 78.63 139.974 78.538C140.11 78.442 140.246 78.394 140.382 78.394C140.514 78.394 140.612 78.424 140.676 78.484C140.744 78.54 140.778 78.628 140.778 78.748C140.778 78.88 140.726 78.986 140.622 79.066C140.518 79.146 140.382 79.186 140.214 79.186C140.002 79.186 139.796 79.306 139.596 79.546C139.396 79.786 139.234 80.098 139.11 80.482C138.986 80.866 138.924 81.262 138.924 81.67C138.924 81.818 138.948 81.922 138.996 81.982C138.876 82.094 138.75 82.15 138.618 82.15ZM142.093 82.15C141.905 82.15 141.759 82.112 141.655 82.036C141.551 81.96 141.477 81.836 141.433 81.664C141.389 81.488 141.367 81.24 141.367 80.92C141.367 80.728 141.369 80.586 141.373 80.494C141.377 80.142 141.373 79.858 141.361 79.642C141.353 79.426 141.321 79.222 141.265 79.03C141.213 78.834 141.125 78.674 141.001 78.55C141.129 78.45 141.271 78.4 141.427 78.4C141.595 78.4 141.723 78.458 141.811 78.574C141.903 78.69 141.967 78.88 142.003 79.144C142.039 79.404 142.057 79.774 142.057 80.254C142.057 80.466 142.057 80.652 142.057 80.812C142.057 80.968 142.057 81.102 142.057 81.214C142.057 81.318 142.057 81.404 142.057 81.472C142.061 81.536 142.061 81.59 142.057 81.634H142.117C142.589 80.966 142.933 80.422 143.149 80.002C143.369 79.582 143.479 79.264 143.479 79.048C143.479 78.852 143.437 78.686 143.353 78.55C143.457 78.494 143.543 78.456 143.611 78.436C143.683 78.412 143.757 78.4 143.833 78.4C143.937 78.4 144.019 78.44 144.079 78.52C144.139 78.6 144.169 78.708 144.169 78.844C144.169 79.004 144.117 79.216 144.013 79.48C143.909 79.74 143.751 80.056 143.539 80.428C143.327 80.796 143.059 81.224 142.735 81.712L142.825 81.892C142.749 81.968 142.641 82.03 142.501 82.078C142.361 82.126 142.225 82.15 142.093 82.15ZM146.312 82.15C145.888 82.15 145.556 82.02 145.316 81.76C145.076 81.5 144.956 81.142 144.956 80.686C144.956 80.254 145.05 79.864 145.238 79.516C145.426 79.168 145.686 78.896 146.018 78.7C146.35 78.5 146.72 78.4 147.128 78.4C147.444 78.4 147.69 78.476 147.866 78.628C148.046 78.78 148.136 78.99 148.136 79.258C148.136 79.542 148.034 79.786 147.83 79.99C147.626 80.19 147.328 80.344 146.936 80.452C146.548 80.556 146.078 80.608 145.526 80.608L145.598 80.272C146.194 80.276 146.656 80.188 146.984 80.008C147.316 79.824 147.482 79.568 147.482 79.24C147.482 79.1 147.44 78.988 147.356 78.904C147.272 78.82 147.162 78.778 147.026 78.778C146.79 78.778 146.57 78.866 146.366 79.042C146.162 79.214 146 79.45 145.88 79.75C145.76 80.046 145.7 80.37 145.7 80.722C145.7 81.042 145.76 81.294 145.88 81.478C146 81.658 146.164 81.748 146.372 81.748C146.632 81.748 146.844 81.666 147.008 81.502C147.172 81.338 147.262 81.12 147.278 80.848C147.434 80.848 147.554 80.878 147.638 80.938C147.722 80.994 147.764 81.084 147.764 81.208C147.764 81.368 147.7 81.522 147.572 81.67C147.444 81.814 147.268 81.93 147.044 82.018C146.824 82.106 146.58 82.15 146.312 82.15ZM149.933 82.15C149.717 82.15 149.525 82.092 149.357 81.976C149.193 81.86 149.065 81.696 148.973 81.484C148.885 81.268 148.841 81.02 148.841 80.74C148.841 80.336 148.943 79.968 149.147 79.636C149.351 79.3 149.629 79.036 149.981 78.844C150.333 78.648 150.721 78.55 151.145 78.55C151.361 78.55 151.549 78.566 151.709 78.598C151.757 78.674 151.781 78.768 151.781 78.88C151.337 78.88 150.949 78.958 150.617 79.114C150.285 79.27 150.029 79.488 149.849 79.768C149.669 80.044 149.579 80.362 149.579 80.722C149.579 80.994 149.635 81.206 149.747 81.358C149.859 81.51 150.017 81.586 150.221 81.586C150.441 81.586 150.657 81.488 150.869 81.292C151.081 81.096 151.245 80.832 151.361 80.5L151.307 81.316L151.187 81.268C151.043 81.548 150.861 81.766 150.641 81.922C150.425 82.074 150.189 82.15 149.933 82.15ZM151.601 82.15C151.477 82.15 151.383 82.11 151.319 82.03C151.255 81.954 151.223 81.836 151.223 81.676C151.223 81.524 151.265 81.17 151.349 80.614C151.433 80.054 151.535 79.41 151.655 78.682C151.683 78.542 151.707 78.408 151.727 78.28C151.751 78.148 151.773 78.024 151.793 77.908L151.529 77.608C151.625 77.528 151.737 77.466 151.865 77.422C151.993 77.374 152.111 77.35 152.219 77.35C152.331 77.35 152.411 77.376 152.459 77.428C152.507 77.476 152.531 77.56 152.531 77.68C152.531 77.76 152.513 77.884 152.477 78.052C152.445 78.22 152.407 78.404 152.363 78.604C152.231 79.188 152.125 79.716 152.045 80.188C151.965 80.656 151.925 81.132 151.925 81.616C151.925 81.688 151.935 81.758 151.955 81.826C151.979 81.894 152.011 81.946 152.051 81.982C151.987 82.034 151.917 82.074 151.841 82.102C151.769 82.134 151.689 82.15 151.601 82.15ZM153.899 82.15C153.763 82.15 153.661 82.116 153.593 82.048C153.525 81.98 153.491 81.872 153.491 81.724C153.491 81.56 153.529 81.268 153.605 80.848C153.685 80.428 153.819 79.796 154.007 78.952L153.743 78.652C153.839 78.576 153.949 78.516 154.073 78.472C154.201 78.424 154.317 78.4 154.421 78.4C154.541 78.4 154.625 78.426 154.673 78.478C154.725 78.526 154.751 78.61 154.751 78.73C154.751 78.75 154.739 78.81 154.715 78.91C154.695 79.01 154.669 79.122 154.637 79.246C154.513 79.754 154.409 80.214 154.325 80.626C154.245 81.038 154.205 81.386 154.205 81.67C154.205 81.822 154.241 81.928 154.313 81.988C154.181 82.096 154.043 82.15 153.899 82.15ZM154.433 77.89C154.305 77.89 154.203 77.86 154.127 77.8C154.051 77.736 154.013 77.652 154.013 77.548C154.013 77.468 154.035 77.394 154.079 77.326C154.127 77.258 154.191 77.204 154.271 77.164C154.351 77.12 154.443 77.098 154.547 77.098C154.679 77.098 154.781 77.13 154.853 77.194C154.929 77.254 154.967 77.334 154.967 77.434C154.967 77.562 154.917 77.67 154.817 77.758C154.717 77.846 154.589 77.89 154.433 77.89ZM157.077 82.15C156.637 82.15 156.291 82.022 156.039 81.766C155.791 81.51 155.667 81.154 155.667 80.698C155.667 80.266 155.763 79.876 155.955 79.528C156.147 79.176 156.409 78.9 156.741 78.7C157.073 78.5 157.437 78.4 157.833 78.4C158.085 78.4 158.283 78.442 158.427 78.526C158.575 78.606 158.649 78.718 158.649 78.862C158.649 78.982 158.601 79.084 158.505 79.168C158.413 79.248 158.297 79.288 158.157 79.288C158.009 79.288 157.875 79.254 157.755 79.186C157.635 79.118 157.537 79.008 157.461 78.856C157.257 78.944 157.075 79.08 156.915 79.264C156.755 79.448 156.629 79.668 156.537 79.924C156.449 80.176 156.405 80.446 156.405 80.734C156.405 81.05 156.463 81.298 156.579 81.478C156.699 81.658 156.863 81.748 157.071 81.748C157.239 81.748 157.389 81.706 157.521 81.622C157.653 81.538 157.757 81.424 157.833 81.28C157.909 81.132 157.953 80.968 157.965 80.788C158.121 80.788 158.241 80.818 158.325 80.878C158.409 80.938 158.451 81.03 158.451 81.154C158.451 81.334 158.389 81.5 158.265 81.652C158.141 81.804 157.973 81.924 157.761 82.012C157.553 82.104 157.325 82.15 157.077 82.15ZM164.603 82.156C164.455 82.156 164.347 82.118 164.279 82.042C164.211 81.966 164.177 81.842 164.177 81.67C164.177 81.434 164.209 81.08 164.273 80.608C164.337 80.136 164.461 79.354 164.645 78.262L164.453 77.896C164.721 77.728 164.959 77.644 165.167 77.644C165.343 77.644 165.431 77.75 165.431 77.962C165.431 77.998 165.413 78.128 165.377 78.352C165.341 78.572 165.301 78.818 165.257 79.09C165.141 79.822 165.055 80.366 164.999 80.722C164.947 81.078 164.921 81.328 164.921 81.472C164.921 81.588 164.933 81.69 164.957 81.778C164.981 81.866 165.017 81.94 165.065 82C164.909 82.104 164.755 82.156 164.603 82.156ZM161.939 82.156C161.791 82.156 161.683 82.118 161.615 82.042C161.547 81.966 161.513 81.842 161.513 81.67C161.513 81.438 161.545 81.086 161.609 80.614C161.673 80.142 161.795 79.358 161.975 78.262L161.789 77.896C162.057 77.728 162.295 77.644 162.503 77.644C162.679 77.644 162.767 77.75 162.767 77.962C162.767 77.998 162.749 78.128 162.713 78.352C162.677 78.572 162.637 78.818 162.593 79.09C162.477 79.822 162.391 80.366 162.335 80.722C162.283 81.078 162.257 81.328 162.257 81.472C162.257 81.588 162.269 81.69 162.293 81.778C162.317 81.866 162.353 81.94 162.401 82C162.245 82.104 162.091 82.156 161.939 82.156ZM162.149 79.828H164.657L164.579 80.254H162.059L162.149 79.828ZM167.69 82.15C167.402 82.15 167.148 82.086 166.928 81.958C166.712 81.826 166.544 81.642 166.424 81.406C166.308 81.166 166.25 80.888 166.25 80.572C166.25 80.148 166.338 79.772 166.514 79.444C166.694 79.116 166.944 78.86 167.264 78.676C167.584 78.492 167.946 78.4 168.35 78.4C168.518 78.4 168.672 78.416 168.812 78.448C168.856 78.512 168.882 78.606 168.89 78.73C168.49 78.73 168.148 78.81 167.864 78.97C167.58 79.13 167.364 79.354 167.216 79.642C167.068 79.926 166.994 80.25 166.994 80.614C166.994 80.97 167.06 81.248 167.192 81.448C167.324 81.648 167.512 81.748 167.756 81.748C167.992 81.748 168.204 81.682 168.392 81.55C168.584 81.418 168.74 81.23 168.86 80.986C168.984 80.742 169.062 80.458 169.094 80.134C168.93 80.03 168.81 79.916 168.734 79.792C168.662 79.668 168.626 79.522 168.626 79.354C168.626 79.254 168.646 79.164 168.686 79.084C168.73 79 168.788 78.936 168.86 78.892C168.932 78.844 169.014 78.82 169.106 78.82C169.29 78.82 169.434 78.902 169.538 79.066C169.642 79.23 169.694 79.458 169.694 79.75C169.694 80.19 169.604 80.594 169.424 80.962C169.248 81.326 169.006 81.616 168.698 81.832C168.394 82.044 168.058 82.15 167.69 82.15ZM171.713 82.15C171.317 82.15 171.005 82.096 170.777 81.988C170.549 81.88 170.435 81.73 170.435 81.538C170.435 81.458 170.459 81.382 170.507 81.31C170.555 81.238 170.623 81.178 170.711 81.13C170.811 81.33 170.945 81.484 171.113 81.592C171.281 81.696 171.467 81.748 171.671 81.748C171.959 81.748 172.191 81.694 172.367 81.586C172.543 81.478 172.631 81.322 172.631 81.118C172.631 80.994 172.565 80.894 172.433 80.818C172.305 80.742 172.107 80.658 171.839 80.566C171.591 80.482 171.387 80.402 171.227 80.326C171.067 80.25 170.931 80.148 170.819 80.02C170.707 79.888 170.651 79.726 170.651 79.534C170.651 79.314 170.727 79.118 170.879 78.946C171.031 78.774 171.241 78.64 171.509 78.544C171.781 78.448 172.093 78.4 172.445 78.4C172.765 78.4 173.027 78.448 173.231 78.544C173.439 78.64 173.543 78.762 173.543 78.91C173.543 79.054 173.495 79.166 173.399 79.246C173.303 79.322 173.177 79.36 173.021 79.36C172.869 79.36 172.739 79.312 172.631 79.216C172.523 79.12 172.441 78.98 172.385 78.796C172.057 78.832 171.799 78.91 171.611 79.03C171.427 79.146 171.335 79.288 171.335 79.456C171.335 79.54 171.367 79.612 171.431 79.672C171.499 79.732 171.583 79.784 171.683 79.828C171.783 79.868 171.925 79.92 172.109 79.984C172.365 80.072 172.571 80.154 172.727 80.23C172.887 80.306 173.023 80.41 173.135 80.542C173.251 80.67 173.309 80.832 173.309 81.028C173.309 81.24 173.245 81.432 173.117 81.604C172.989 81.772 172.803 81.904 172.559 82C172.319 82.1 172.037 82.15 171.713 82.15ZM175.686 82C175.486 82 175.296 81.984 175.116 81.952C175.068 81.868 175.044 81.774 175.044 81.67C175.484 81.67 175.87 81.594 176.202 81.442C176.538 81.286 176.796 81.07 176.976 80.794C177.16 80.514 177.252 80.192 177.252 79.828C177.252 79.556 177.194 79.344 177.078 79.192C176.966 79.04 176.808 78.964 176.604 78.964C176.4 78.964 176.21 79.06 176.034 79.252C175.862 79.44 175.706 79.718 175.566 80.086C175.426 80.45 175.3 80.9 175.188 81.436L175.332 79.15L175.644 79.378C175.784 79.066 175.964 78.826 176.184 78.658C176.404 78.486 176.64 78.4 176.892 78.4C177.108 78.4 177.298 78.458 177.462 78.574C177.63 78.69 177.758 78.856 177.846 79.072C177.938 79.284 177.984 79.53 177.984 79.81C177.984 80.214 177.882 80.584 177.678 80.92C177.478 81.252 177.202 81.516 176.85 81.712C176.498 81.904 176.11 82 175.686 82ZM174.774 83.2C174.65 83.2 174.556 83.158 174.492 83.074C174.428 82.994 174.396 82.87 174.396 82.702C174.396 82.546 174.45 82.104 174.558 81.376C174.67 80.644 174.806 79.838 174.966 78.958L174.702 78.658C174.798 78.582 174.91 78.52 175.038 78.472C175.166 78.424 175.284 78.4 175.392 78.4C175.504 78.4 175.584 78.426 175.632 78.478C175.68 78.526 175.704 78.61 175.704 78.73C175.704 78.81 175.69 78.92 175.662 79.06C175.638 79.196 175.596 79.392 175.536 79.648C175.4 80.24 175.292 80.772 175.212 81.244C175.136 81.712 175.098 82.188 175.098 82.672C175.098 82.748 175.11 82.818 175.134 82.882C175.158 82.95 175.188 83 175.224 83.032C175.164 83.088 175.096 83.13 175.02 83.158C174.944 83.186 174.862 83.2 174.774 83.2ZM179.458 82.15C179.322 82.15 179.22 82.116 179.152 82.048C179.084 81.98 179.05 81.872 179.05 81.724C179.05 81.56 179.088 81.268 179.164 80.848C179.244 80.428 179.378 79.796 179.566 78.952L179.302 78.652C179.398 78.576 179.508 78.516 179.632 78.472C179.76 78.424 179.876 78.4 179.98 78.4C180.1 78.4 180.184 78.426 180.232 78.478C180.284 78.526 180.31 78.61 180.31 78.73C180.31 78.75 180.298 78.81 180.274 78.91C180.254 79.01 180.228 79.122 180.196 79.246C180.072 79.754 179.968 80.214 179.884 80.626C179.804 81.038 179.764 81.386 179.764 81.67C179.764 81.822 179.8 81.928 179.872 81.988C179.74 82.096 179.602 82.15 179.458 82.15ZM179.992 77.89C179.864 77.89 179.762 77.86 179.686 77.8C179.61 77.736 179.572 77.652 179.572 77.548C179.572 77.468 179.594 77.394 179.638 77.326C179.686 77.258 179.75 77.204 179.83 77.164C179.91 77.12 180.002 77.098 180.106 77.098C180.238 77.098 180.34 77.13 180.412 77.194C180.488 77.254 180.526 77.334 180.526 77.434C180.526 77.562 180.476 77.67 180.376 77.758C180.276 77.846 180.148 77.89 179.992 77.89ZM182.018 82.15C181.894 82.15 181.796 82.114 181.724 82.042C181.652 81.97 181.616 81.836 181.616 81.64C181.616 81.444 181.642 81.22 181.694 80.968C181.746 80.716 181.822 80.392 181.922 79.996C182.014 79.636 182.082 79.35 182.126 79.138C182.17 78.922 182.192 78.736 182.192 78.58C182.192 78.436 182.172 78.274 182.132 78.094L182.12 78.046C182.188 77.974 182.278 77.918 182.39 77.878C182.502 77.834 182.612 77.812 182.72 77.812C182.836 77.812 182.92 77.838 182.972 77.89C183.024 77.942 183.05 78.028 183.05 78.148C183.05 78.244 183.03 78.368 182.99 78.52C182.954 78.672 182.894 78.886 182.81 79.162C182.658 79.666 182.538 80.106 182.45 80.482C182.366 80.854 182.326 81.23 182.33 81.61L182.522 81.934C182.45 82.006 182.368 82.06 182.276 82.096C182.188 82.132 182.102 82.15 182.018 82.15ZM181.712 79.372C181.612 79.372 181.54 79.354 181.496 79.318C181.452 79.278 181.43 79.218 181.43 79.138C181.43 79.034 181.462 78.936 181.526 78.844C181.638 78.88 181.82 78.898 182.072 78.898C182.224 78.898 182.424 78.876 182.672 78.832C182.776 78.816 182.884 78.802 182.996 78.79C183.108 78.774 183.21 78.766 183.302 78.766C183.406 78.766 183.478 78.786 183.518 78.826C183.558 78.866 183.578 78.926 183.578 79.006C183.578 79.11 183.546 79.204 183.482 79.288C183.422 79.272 183.34 79.26 183.236 79.252C183.136 79.24 183.042 79.234 182.954 79.234C182.87 79.234 182.774 79.242 182.666 79.258C182.558 79.27 182.454 79.284 182.354 79.3C182.066 79.348 181.852 79.372 181.712 79.372ZM184.984 82.15C184.768 82.15 184.576 82.092 184.408 81.976C184.244 81.86 184.116 81.696 184.024 81.484C183.936 81.268 183.892 81.02 183.892 80.74C183.892 80.308 183.994 79.914 184.198 79.558C184.402 79.198 184.68 78.916 185.032 78.712C185.384 78.504 185.772 78.4 186.196 78.4C186.38 78.4 186.568 78.416 186.76 78.448C186.808 78.532 186.832 78.626 186.832 78.73C186.38 78.73 185.988 78.816 185.656 78.988C185.324 79.16 185.07 79.398 184.894 79.702C184.718 80.002 184.63 80.342 184.63 80.722C184.63 80.994 184.686 81.206 184.798 81.358C184.91 81.51 185.068 81.586 185.272 81.586C185.644 81.586 185.95 81.35 186.19 80.878C186.43 80.402 186.61 79.686 186.73 78.73C186.774 78.674 186.83 78.63 186.898 78.598C186.97 78.566 187.042 78.55 187.114 78.55C187.214 78.55 187.292 78.574 187.348 78.622C187.408 78.67 187.438 78.736 187.438 78.82C187.438 78.912 187.424 79.022 187.396 79.15C187.372 79.278 187.33 79.466 187.27 79.714C187.174 80.118 187.1 80.468 187.048 80.764C186.996 81.06 186.97 81.362 186.97 81.67C186.97 81.81 187.006 81.914 187.078 81.982C186.954 82.094 186.82 82.15 186.676 82.15C186.54 82.15 186.436 82.108 186.364 82.024C186.292 81.94 186.256 81.818 186.256 81.658C186.256 81.57 186.27 81.45 186.298 81.298L186.238 81.268C186.094 81.548 185.912 81.766 185.692 81.922C185.476 82.074 185.24 82.15 184.984 82.15ZM188.896 82.15C188.776 82.15 188.684 82.11 188.62 82.03C188.556 81.954 188.524 81.836 188.524 81.676C188.524 81.52 188.568 81.148 188.656 80.56C188.744 79.968 188.844 79.342 188.956 78.682C188.98 78.542 189.004 78.408 189.028 78.28C189.052 78.148 189.074 78.024 189.094 77.908L188.83 77.608C188.922 77.528 189.032 77.466 189.16 77.422C189.292 77.374 189.412 77.35 189.52 77.35C189.632 77.35 189.712 77.376 189.76 77.428C189.808 77.476 189.832 77.56 189.832 77.68C189.832 77.732 189.816 77.842 189.784 78.01C189.752 78.178 189.714 78.366 189.67 78.574C189.538 79.218 189.43 79.79 189.346 80.29C189.266 80.786 189.226 81.228 189.226 81.616C189.226 81.692 189.236 81.764 189.256 81.832C189.28 81.896 189.31 81.946 189.346 81.982C189.286 82.034 189.218 82.074 189.142 82.102C189.066 82.134 188.984 82.15 188.896 82.15Z" fill="#053714" fill-opacity="0.89"/>
<path fill-rule="evenodd" clip-rule="evenodd" d="M10.9411 4.71368C7.29768 16.4589 11.7462 23.367 18.6953 29.5152C27.0769 36.9368 33.8311 41.1915 38.2439 45.5765C59.6127 66.6995 34.4001 82.459 18.2746 78.3351C9.08905 75.9899 4.21432 67.0675 8.08784 59.353C0.557107 67.4715 6.36398 79.8596 18.8986 84.3155C45.7901 93.8383 81.0754 69.1173 50.1741 45.5765C45.2846 41.8644 30.9883 31.9904 22.5289 26.2429C15.9535 21.7763 12.1396 14.1667 10.9411 4.71368Z" fill="#513327"/>
<path fill-rule="evenodd" clip-rule="evenodd" d="M24.7583 23.2854C20.3421 19.4182 17.3882 16.413 17.1813 12.9632C17 10.1667 19.1414 7.10846 19.7947 2.74353C23.2446 5.67173 26.9032 6.74244 28.1312 9.87931C29.4123 13.0931 28.1842 18.4244 25.5708 24.0174C25.0217 17.039 24.447 14.0082 21.8849 7.31713C22.7999 12.6758 23.5063 17.9797 24.76 23.2854H24.7583Z" fill="#96BA23"/>
<mask id="mask0_32_11" style="mask-type:luminance" maskUnits="userSpaceOnUse" x="29" y="0" width="17" height="24">
<path d="M29.7695 0H45.5325V23.2819H29.7695V0Z" fill="white"/>
</mask>
<g mask="url(#mask0_32_11)">
<path fill-rule="evenodd" clip-rule="evenodd" d="M30.0895 21.6656C29.8022 14.5042 29.9852 9.35587 32.886 6.27203C35.2121 3.76287 39.7071 3.08385 44.1507 0C44.438 5.53998 46.5555 9.67058 44.8041 13.4061C43.0013 17.222 37.2509 20.6445 30.0895 22.9963C35.8399 16.673 38.0617 13.5908 41.8502 5.69733C37.8513 11.003 33.7224 16.1256 30.0895 21.6656Z" fill="#96BA23"/>
</g>
<path fill-rule="evenodd" clip-rule="evenodd" d="M32.2071 25.1668C37.3554 22.3446 41.1969 20.5932 44.5168 21.5869C47.1816 22.3977 49.3247 25.4541 53.1937 27.5716C49.2478 29.7934 47.0003 32.8516 43.6274 32.9303C40.1519 33.009 35.5766 30.0551 31.2424 25.6645C37.9575 27.5459 41.0156 28.0676 48.2027 27.965C42.8458 26.9713 37.5931 25.8219 32.2088 25.1668H32.2071Z" fill="#96BA23"/>
<path d="M10.3029 60.2854L10.176 60.582L9.93093 61.319L9.81273 61.7595L9.69453 62.2C9.57676 62.5865 9.52665 62.8111 9.46685 63.225C9.41518 63.6249 9.39915 63.8472 9.38348 64.2411C9.39409 64.9961 9.43008 65.3978 9.49669 66.1121C9.60772 66.8057 9.69942 67.1768 9.88983 67.8217C10.1662 68.6192 10.3484 69.0555 10.7334 69.793C11.1196 70.5189 11.4134 70.9699 12.0098 71.738C12.3755 72.2023 12.7106 72.5285 13.5488 73.2338C13.9997 73.6095 14.2716 73.8123 14.7644 74.1714C15.1318 74.4222 15.3638 74.5665 15.8182 74.8299C16.2276 75.0566 16.4562 75.1624 16.8633 75.3445C17.1603 75.4896 17.3507 75.5724 17.7553 75.7239C19.0886 76.1778 19.9304 76.4025 22.0103 76.622C25.969 76.8749 28.0584 76.5505 31.645 75.4612C34.0412 74.4932 35.3192 73.8679 37.4054 72.5126C39.8607 70.6188 40.9802 69.4362 42.5849 67.1435C43.4905 65.1896 43.8892 64.0918 44.3093 62.1279C44.3093 54.5138 44.3093 60.2854 44.3093 60.2854" stroke="url(#paint1_linear_32_11)" stroke-width="2.95557"/>
<path d="M38.2187 58.7389L9.10743 60.2442L8.96047 61.8796L38.2187 58.7389Z" fill="#D25520" stroke="#CF5420" stroke-width="0.985189"/>
<circle cx="3.51577" cy="3.51577" r="3.48061" transform="matrix(-0.996174 0.087393 0.087393 0.996174 13.6665 47.1498)" fill="url(#paint2_linear_32_11)" stroke="url(#paint3_linear_32_11)" stroke-width="0.0703154"/>
<path d="M13.2673 53.4289L16.8973 59.2188L13.1255 59.5497L11.06 54.5727L13.2673 53.4289Z" fill="url(#paint4_linear_32_11)" stroke="url(#paint5_linear_32_11)" stroke-width="0.540888"/>
<path d="M78.32 71C76.88 71 75.6 70.6133 74.48 69.84C73.3867 69.0667 72.5333 67.9733 71.92 66.56C71.3333 65.12 71.04 63.4667 71.04 61.6C71.04 58.72 71.72 56.0933 73.08 53.72C74.44 51.32 76.2933 49.44 78.64 48.08C80.9867 46.6933 83.5733 46 86.4 46C87.6267 46 88.88 46.1067 90.16 46.32C90.48 46.88 90.64 47.5067 90.64 48.2C87.6267 48.2 85.0133 48.7733 82.8 49.92C80.5867 51.0667 78.8933 52.6533 77.72 54.68C76.5467 56.68 75.96 58.9467 75.96 61.48C75.96 63.2933 76.3333 64.7067 77.08 65.72C77.8267 66.7333 78.88 67.24 80.24 67.24C82.72 67.24 84.76 65.6667 86.36 62.52C87.96 59.3467 89.16 54.5733 89.96 48.2C90.2533 47.8267 90.6267 47.5333 91.08 47.32C91.56 47.1067 92.04 47 92.52 47C93.1867 47 93.7067 47.16 94.08 47.48C94.48 47.8 94.68 48.24 94.68 48.8C94.68 49.4133 94.5867 50.1467 94.4 51C94.24 51.8533 93.96 53.1067 93.56 54.76C92.92 57.4533 92.4267 59.7867 92.08 61.76C91.7333 63.7333 91.56 65.7467 91.56 67.8C91.56 68.7333 91.8 69.4267 92.28 69.88C91.4533 70.6267 90.56 71 89.6 71C88.6933 71 88 70.72 87.52 70.16C87.04 69.6 86.8 68.7867 86.8 67.72C86.8 67.1333 86.8933 66.3333 87.08 65.32L86.68 65.12C85.72 66.9867 84.5067 68.44 83.04 69.48C81.6 70.4933 80.0267 71 78.32 71ZM103.962 71C103.029 71 102.335 70.76 101.882 70.28C101.429 69.8 101.202 69.0933 101.202 68.16C101.202 67.2267 101.429 65.48 101.882 62.92C102.335 60.3333 103.095 56.28 104.162 50.76C104.429 49.4267 104.695 48.0933 104.962 46.76C105.229 45.4 105.482 44.0533 105.722 42.72L103.962 40.72C104.575 40.1867 105.309 39.7733 106.162 39.48C107.042 39.16 107.842 39 108.562 39C109.309 39 109.842 39.1733 110.162 39.52C110.482 39.84 110.642 40.4 110.642 41.2C110.642 41.7067 110.562 42.3733 110.402 43.2C110.242 44 109.975 45.1467 109.602 46.64C108.882 49.5467 108.362 51.8 108.042 53.4L108.442 53.6C109.909 50.96 111.602 49.04 113.522 47.84C115.442 46.6133 117.375 46 119.322 46C121.029 46 122.309 46.44 123.162 47.32C124.015 48.1733 124.442 49.5067 124.442 51.32C124.442 52.3867 124.322 53.4933 124.082 54.64C123.869 55.7867 123.549 57.2267 123.122 58.96C122.615 60.9867 122.242 62.6533 122.002 63.96C121.762 65.24 121.642 66.52 121.642 67.8C121.642 68.8133 121.815 69.5067 122.162 69.88C121.335 70.6267 120.482 71 119.602 71C118.669 71 117.989 70.76 117.562 70.28C117.135 69.8 116.922 69.0933 116.922 68.16C116.922 67.1467 117.029 66.0133 117.242 64.76C117.482 63.48 117.815 61.8267 118.242 59.8C118.642 58.12 118.935 56.72 119.122 55.6C119.335 54.4533 119.442 53.4667 119.442 52.64C119.442 50.48 118.629 49.4 117.002 49.4C115.375 49.4 113.695 50.2 111.962 51.8C110.255 53.4 108.829 55.6133 107.682 58.44C106.535 61.24 105.962 64.36 105.962 67.8C105.962 68.7867 106.122 69.48 106.442 69.88C105.669 70.6267 104.842 71 103.962 71ZM134.254 71C133.347 71 132.667 70.7733 132.214 70.32C131.761 69.8667 131.534 69.1467 131.534 68.16C131.534 67.0667 131.787 65.12 132.294 62.32C132.827 59.52 133.721 55.3067 134.974 49.68L133.214 47.68C133.854 47.1733 134.587 46.7733 135.414 46.48C136.267 46.16 137.041 46 137.734 46C138.534 46 139.094 46.1733 139.414 46.52C139.761 46.84 139.934 47.4 139.934 48.2C139.934 48.3333 139.854 48.7333 139.694 49.4C139.561 50.0667 139.387 50.8133 139.174 51.64C138.347 55.0267 137.654 58.0933 137.094 60.84C136.561 63.5867 136.294 65.9067 136.294 67.8C136.294 68.8133 136.534 69.52 137.014 69.92C136.134 70.64 135.214 71 134.254 71ZM137.814 42.6C136.961 42.6 136.281 42.4 135.774 42C135.267 41.5733 135.014 41.0133 135.014 40.32C135.014 39.7867 135.161 39.2933 135.454 38.84C135.774 38.3867 136.201 38.0267 136.734 37.76C137.267 37.4667 137.881 37.32 138.574 37.32C139.454 37.32 140.134 37.5333 140.614 37.96C141.121 38.36 141.374 38.8933 141.374 39.56C141.374 40.4133 141.041 41.1333 140.374 41.72C139.707 42.3067 138.854 42.6 137.814 42.6ZM151.642 71C150.629 71 149.762 70.8667 149.042 70.6C148.349 70.3333 147.789 69.8267 147.362 69.08C146.935 68.3333 146.722 67.2533 146.722 65.84C146.722 64.0533 147.069 61.1733 147.762 57.2C148.482 53.2 149.455 48.3867 150.682 42.76L148.922 40.76C149.562 40.2267 150.309 39.8133 151.162 39.52C152.042 39.2 152.829 39.04 153.522 39.04C154.295 39.04 154.842 39.2133 155.162 39.56C155.482 39.88 155.642 40.44 155.642 41.24C155.642 41.7467 155.535 42.4533 155.322 43.36C155.135 44.24 154.842 45.48 154.442 47.08C153.935 49.0533 153.522 50.7467 153.202 52.16L153.602 52.36C154.615 50.3333 155.869 48.7733 157.362 47.68C158.855 46.56 160.495 46 162.282 46C163.722 46 164.989 46.3733 166.082 47.12C167.202 47.84 168.055 48.88 168.642 50.24C169.255 51.5733 169.562 53.1333 169.562 54.92C169.562 57.9067 168.762 60.6267 167.162 63.08C165.589 65.5333 163.429 67.4667 160.682 68.88C157.962 70.2933 154.949 71 151.642 71ZM150.642 68.4C153.282 68.2933 155.669 67.6667 157.802 66.52C159.935 65.3733 161.602 63.84 162.802 61.92C164.029 59.9733 164.642 57.84 164.642 55.52C164.642 53.7067 164.269 52.2933 163.522 51.28C162.775 50.2667 161.722 49.76 160.362 49.76C158.709 49.76 157.135 50.5467 155.642 52.12C154.149 53.6933 152.935 55.9067 152.002 58.76C151.095 61.5867 150.642 64.8 150.642 68.4Z" fill="#513327"/>
<defs>
<linearGradient id="paint0_linear_32_11" x1="36.5613" y1="64.8236" x2="33.6565" y2="73.0833" gradientUnits="userSpaceOnUse">
<stop stop-color="#E85C20"/>
<stop offset="1" stop-color="#823412"/>
</linearGradient>
<linearGradient id="paint1_linear_32_11" x1="26.4661" y1="56.5581" x2="27.6754" y2="76.5434" gradientUnits="userSpaceOnUse">
<stop stop-color="#E85C20"/>
<stop offset="1" stop-color="#572F1D"/>
</linearGradient>
<linearGradient id="paint2_linear_32_11" x1="3.51577" y1="0" x2="3.51577" y2="7.03154" gradientUnits="userSpaceOnUse">
<stop stop-color="#E85C20"/>
<stop offset="1" stop-color="#B47256"/>
</linearGradient>
<linearGradient id="paint3_linear_32_11" x1="3.51577" y1="0" x2="3.51577" y2="7.03154" gradientUnits="userSpaceOnUse">
<stop stop-color="#E85C20"/>
<stop offset="1" stop-color="#572F1D"/>
</linearGradient>
<linearGradient id="paint4_linear_32_11" x1="13.6714" y1="53.3935" x2="14.2032" y2="59.4552" gradientUnits="userSpaceOnUse">
<stop stop-color="#E85C20"/>
<stop offset="1" stop-color="#572F1D"/>
</linearGradient>
<linearGradient id="paint5_linear_32_11" x1="13.6714" y1="53.3935" x2="14.2032" y2="59.4552" gradientUnits="userSpaceOnUse">
<stop stop-color="#E85C20"/>
<stop offset="1" stop-color="#572F1D"/>
</linearGradient>
</defs>
</svg>
